<?xml version="1.0" standalone="no"?>
<!DOCTYPE svg PUBLIC "-//W3C//DTD SVG 20010904//EN"
 "http://www.w3.org/TR/2001/REC-SVG-20010904/DTD/svg10.dtd">
<svg version="1.0" xmlns="http://www.w3.org/2000/svg"
 width="1024.000000pt" height="1024.000000pt" viewBox="0 0 1024.000000 1024.000000"
 preserveAspectRatio="xMidYMid meet">
<metadata>
Created by potrace 1.16, written by Peter Selinger 2001-2019
</metadata>
<g transform="translate(0.000000,1024.000000) scale(0.100000,-0.100000)"
fill="#D71920" stroke="none">
<path d="M0 5120 l0 -5120 5120 0 5120 0 0 5120 0 5120 -5120 0 -5120 0 0
-5120z m7295 3330 c202 -65 414 -227 513 -393 38 -64 91 -188 96 -226 2 -14 6
-33 9 -41 32 -80 38 -353 12 -525 -90 -597 -479 -1412 -1072 -2247 -58 -82
-110 -148 -116 -148 -5 0 -8 -3 -4 -6 12 -13 -317 -427 -511 -644 -156 -174
-670 -700 -684 -700 -4 0 -26 -21 -50 -46 -125 -136 -964 -864 -982 -852 -3 2
-11 -4 -18 -13 -55 -70 -913 -689 -955 -689 -7 0 -13 -4 -13 -9 0 -17 -334
-213 -372 -219 -42 -5 -68 10 -68 39 0 23 47 72 91 95 52 26 338 206 501 316
81 54 152 98 158 98 5 0 10 4 10 9 0 11 212 167 222 164 5 -2 8 1 8 6 0 5 35
35 78 67 268 201 735 594 1010 848 89 83 182 167 205 187 51 44 457 454 558
564 204 222 486 558 639 760 41 54 86 110 100 124 13 14 22 26 20 26 -5 0 120
177 131 185 3 3 8 10 10 15 2 6 45 71 95 145 50 74 128 198 174 275 46 77 88
143 93 146 5 3 8 9 7 13 -2 7 100 202 144 276 33 56 169 354 221 485 99 251
169 494 202 710 23 146 22 380 -2 490 -9 44 -18 85 -19 90 -1 6 -23 53 -48
106 -191 391 -676 499 -1179 262 -222 -105 -465 -302 -669 -541 -258 -303
-501 -724 -626 -1084 l-34 -98 64 -82 c266 -346 399 -724 345 -980 -25 -116
-99 -226 -184 -271 -57 -31 -190 -31 -256 -1 -92 43 -152 128 -191 272 -18 67
-21 105 -21 287 0 231 18 383 71 607 19 76 26 122 20 132 -15 27 -56 64 -142
129 -44 34 -83 64 -86 67 -6 6 -162 82 -170 83 -3 0 -35 10 -72 23 -160 54
-397 59 -536 10 -266 -93 -423 -310 -439 -606 -15 -289 117 -687 343 -1032 35
-54 61 -98 57 -98 -4 0 0 -6 8 -12 9 -7 59 -67 111 -133 137 -172 338 -373
518 -518 64 -51 204 -148 318 -219 115 -72 131 -87 128 -123 -5 -60 -62 -61
-160 -3 -243 143 -446 299 -653 502 -140 136 -305 323 -311 352 -2 8 -8 14
-12 14 -20 0 -196 284 -271 435 -204 415 -262 815 -159 1098 32 86 83 176 132
230 18 20 40 46 49 57 61 78 256 191 388 225 297 76 657 -32 954 -288 32 -27
59 -48 61 -46 2 2 11 29 21 59 61 187 192 462 327 686 346 578 799 971 1276
1108 138 40 184 45 357 42 133 -3 172 -7 230 -26z"/>
<path d="M5115 6238 c-31 -139 -47 -265 -52 -433 -12 -369 56 -562 205 -582
134 -18 228 135 207 340 -17 180 -116 428 -247 620 -29 44 -57 87 -63 98 -21
40 -33 29 -50 -43z"/>
</g>
</svg>
