<svg version="1.0" xmlns="http://www.w3.org/2000/svg"
 width="1024" height="1024" viewBox="0 0 1024 1024"
 preserveAspectRatio="xMidYMid meet">
<g transform="translate(0,1024) scale(0.1,-0.1)" fill="white" stroke="none">
<path d="M7250 8463 c119 -34 174 -66 261 -153 119 -117 173 -252 186 -457 11
-181 -30 -459 -102 -705 -239 -808 -856 -1725 -1879 -2792 -561 -585 -1189
-1072 -1905 -1475 -317 -179 -874 -441 -937 -441 -46 0 -78 30 -78 73 0 19 6
42 12 50 7 8 68 39 135 67 369 159 801 388 1162 618 535 340 939 667 1417
1149 625 630 1041 1144 1450 1793 317 504 522 1036 558 1448 10 125 -1 297
-25 375 -37 123 -125 224 -242 280 l-68 32 -165 -1 c-193 0 -247 -11 -404 -80
-219 -95 -361 -197 -572 -408 -140 -141 -228 -251 -381 -476 -120 -177 -266
-512 -343 -788 l-30 -105 35 -101 c63 -186 85 -364 49 -400 -23 -24 -59 -29
-91 -14 -32 15 -44 47 -68 183 -32 182 -91 324 -222 537 -176 286 -398 506
-585 578 -238 93 -472 13 -569 -193 -53 -115 -64 -176 -63 -352 1 -141 4 -172
28 -260 71 -261 239 -596 418 -831 139 -183 153 -201 254 -315 113 -128 284
-295 457 -447 63 -56 125 -114 137 -129 28 -36 23 -80 -12 -106 -47 -35 -78
-20 -243 124 -360 313 -641 633 -846 961 -96 153 -231 430 -273 558 -62 191
-81 305 -80 485 0 145 3 168 27 248 76 248 199 376 418 437 258 71 533 -37
794 -311 88 -93 217 -265 286 -381 18 -32 36 -58 39 -58 3 1 24 58 46 128 70
214 182 453 298 635 169 264 370 500 561 658 242 200 438 306 665 359 194 45
342 46 490 3z"/>
</g>
</svg>
